<mxfile host="app.diagrams.net" modified="2024-02-13T10:18:31.157Z" agent="Mozilla/5.0 (Macintosh; Intel Mac OS X 10.15; rv:122.0) Gecko/20100101 Firefox/122.0" etag="M5u_XsKITgvbDXwngaSz" version="23.1.2" type="device">
  <diagram name="Page-1" id="IpxJ4mC2YNPHf-15_SMo">
    <mxGraphModel dx="1472" dy="1026" grid="1" gridSize="10" guides="1" tooltips="1" connect="1" arrows="1" fold="1" page="1" pageScale="1" pageWidth="1169" pageHeight="827" math="0" shadow="0">
      <root>
        <mxCell id="0" />
        <mxCell id="1" parent="0" />
        <mxCell id="Qtx_ZqEV-sZvL8ISs7kM-2" value="" style="rounded=0;whiteSpace=wrap;html=1;fillColor=default;" parent="1" vertex="1">
          <mxGeometry x="750" y="83" width="240" height="280" as="geometry" />
        </mxCell>
        <mxCell id="Qtx_ZqEV-sZvL8ISs7kM-1" value="" style="rounded=0;whiteSpace=wrap;html=1;fillColor=default;" parent="1" vertex="1">
          <mxGeometry x="40" y="60" width="620" height="440" as="geometry" />
        </mxCell>
        <mxCell id="Qtx_ZqEV-sZvL8ISs7kM-29" value="User" style="ellipse;whiteSpace=wrap;html=1;" parent="1" vertex="1">
          <mxGeometry x="315" y="251" width="70" height="70" as="geometry" />
        </mxCell>
        <mxCell id="Qtx_ZqEV-sZvL8ISs7kM-6" value="&lt;div&gt;&lt;font style=&quot;font-size: 22px;&quot;&gt;External University&lt;/font&gt;&lt;/div&gt;" style="text;html=1;align=center;verticalAlign=middle;resizable=0;points=[];autosize=1;strokeColor=none;fillColor=none;" parent="1" vertex="1">
          <mxGeometry x="195" y="60" width="210" height="40" as="geometry" />
        </mxCell>
        <mxCell id="Qtx_ZqEV-sZvL8ISs7kM-10" style="edgeStyle=orthogonalEdgeStyle;rounded=0;orthogonalLoop=1;jettySize=auto;html=1;exitX=1;exitY=0.5;exitDx=0;exitDy=0;" parent="1" source="Qtx_ZqEV-sZvL8ISs7kM-7" target="Qtx_ZqEV-sZvL8ISs7kM-9" edge="1">
          <mxGeometry relative="1" as="geometry">
            <mxPoint x="300" y="152.66999999999996" as="sourcePoint" />
          </mxGeometry>
        </mxCell>
        <mxCell id="Qtx_ZqEV-sZvL8ISs7kM-7" value="Microscopes" style="rounded=0;whiteSpace=wrap;html=1;" parent="1" vertex="1">
          <mxGeometry x="65" y="98" width="140" height="110" as="geometry" />
        </mxCell>
        <mxCell id="Qtx_ZqEV-sZvL8ISs7kM-9" value="&lt;div&gt;Data Storage&lt;/div&gt;" style="rounded=0;whiteSpace=wrap;html=1;" parent="1" vertex="1">
          <mxGeometry x="490" y="98" width="150" height="110" as="geometry" />
        </mxCell>
        <mxCell id="Qtx_ZqEV-sZvL8ISs7kM-11" value="&lt;div&gt;microscopy images&amp;nbsp;&lt;/div&gt;&lt;div&gt;(datasets)&lt;/div&gt;" style="text;html=1;align=center;verticalAlign=middle;resizable=0;points=[];autosize=1;strokeColor=none;fillColor=none;" parent="1" vertex="1">
          <mxGeometry x="285" y="118" width="130" height="40" as="geometry" />
        </mxCell>
        <mxCell id="Qtx_ZqEV-sZvL8ISs7kM-37" style="edgeStyle=orthogonalEdgeStyle;rounded=0;orthogonalLoop=1;jettySize=auto;html=1;exitX=1;exitY=0.5;exitDx=0;exitDy=0;entryX=0;entryY=0.5;entryDx=0;entryDy=0;" parent="1" source="Qtx_ZqEV-sZvL8ISs7kM-16" target="Qtx_ZqEV-sZvL8ISs7kM-36" edge="1">
          <mxGeometry relative="1" as="geometry" />
        </mxCell>
        <mxCell id="Qtx_ZqEV-sZvL8ISs7kM-16" value="&lt;div&gt;Data transfer&amp;nbsp;&lt;/div&gt;&lt;div&gt;webservice&lt;/div&gt;&lt;div&gt;+&lt;/div&gt;&lt;div&gt;frontend&lt;br&gt;&lt;/div&gt;" style="ellipse;whiteSpace=wrap;html=1;" parent="1" vertex="1">
          <mxGeometry x="490" y="236" width="150" height="100" as="geometry" />
        </mxCell>
        <mxCell id="Qtx_ZqEV-sZvL8ISs7kM-25" value="" style="endArrow=classic;html=1;rounded=0;entryX=0;entryY=0.5;entryDx=0;entryDy=0;" parent="1" source="Qtx_ZqEV-sZvL8ISs7kM-29" target="Qtx_ZqEV-sZvL8ISs7kM-16" edge="1">
          <mxGeometry width="50" height="50" relative="1" as="geometry">
            <mxPoint x="665" y="496.6700000000001" as="sourcePoint" />
            <mxPoint x="490" y="272" as="targetPoint" />
          </mxGeometry>
        </mxCell>
        <mxCell id="Qtx_ZqEV-sZvL8ISs7kM-27" style="edgeStyle=orthogonalEdgeStyle;rounded=0;orthogonalLoop=1;jettySize=auto;html=1;exitX=0.5;exitY=1;exitDx=0;exitDy=0;" parent="1" edge="1">
          <mxGeometry relative="1" as="geometry">
            <mxPoint x="312.5" y="477.67" as="sourcePoint" />
            <mxPoint x="312.5" y="477.67" as="targetPoint" />
          </mxGeometry>
        </mxCell>
        <mxCell id="Qtx_ZqEV-sZvL8ISs7kM-28" style="edgeStyle=orthogonalEdgeStyle;rounded=0;orthogonalLoop=1;jettySize=auto;html=1;exitX=0.5;exitY=1;exitDx=0;exitDy=0;" parent="1" edge="1">
          <mxGeometry relative="1" as="geometry">
            <mxPoint x="312.5" y="477.67" as="sourcePoint" />
            <mxPoint x="312.5" y="477.67" as="targetPoint" />
          </mxGeometry>
        </mxCell>
        <mxCell id="Qtx_ZqEV-sZvL8ISs7kM-44" value="Tape storage" style="rounded=0;whiteSpace=wrap;html=1;" parent="1" vertex="1">
          <mxGeometry x="270" y="377" width="150" height="110" as="geometry" />
        </mxCell>
        <mxCell id="Qtx_ZqEV-sZvL8ISs7kM-45" value="" style="endArrow=classic;startArrow=classic;html=1;rounded=0;entryX=1;entryY=0.5;entryDx=0;entryDy=0;" parent="1" source="Qtx_ZqEV-sZvL8ISs7kM-31" target="Qtx_ZqEV-sZvL8ISs7kM-44" edge="1">
          <mxGeometry width="50" height="50" relative="1" as="geometry">
            <mxPoint x="972.5" y="432" as="sourcePoint" />
            <mxPoint x="465" y="431" as="targetPoint" />
          </mxGeometry>
        </mxCell>
        <mxCell id="Qtx_ZqEV-sZvL8ISs7kM-3" value="&lt;font style=&quot;font-size: 22px;&quot;&gt;PSI&lt;/font&gt;" style="text;html=1;align=center;verticalAlign=middle;resizable=0;points=[];autosize=1;strokeColor=none;fillColor=none;" parent="1" vertex="1">
          <mxGeometry x="840.0038461538461" y="83" width="60" height="40" as="geometry" />
        </mxCell>
        <mxCell id="Qtx_ZqEV-sZvL8ISs7kM-31" value="Data&lt;br&gt;&lt;div&gt;Cache&lt;/div&gt;" style="rounded=0;whiteSpace=wrap;html=1;" parent="1" vertex="1">
          <mxGeometry x="490" y="376" width="150" height="110" as="geometry" />
        </mxCell>
        <mxCell id="Qtx_ZqEV-sZvL8ISs7kM-36" value="&lt;div&gt;SciCat&lt;/div&gt;&lt;div&gt;Backend&lt;br&gt;&lt;/div&gt;" style="ellipse;whiteSpace=wrap;html=1;" parent="1" vertex="1">
          <mxGeometry x="795" y="236" width="150" height="100" as="geometry" />
        </mxCell>
        <mxCell id="Qtx_ZqEV-sZvL8ISs7kM-38" value="" style="endArrow=classic;startArrow=classic;html=1;rounded=0;entryX=0.5;entryY=1;entryDx=0;entryDy=0;exitX=0.5;exitY=0;exitDx=0;exitDy=0;" parent="1" source="Qtx_ZqEV-sZvL8ISs7kM-31" target="Qtx_ZqEV-sZvL8ISs7kM-16" edge="1">
          <mxGeometry width="50" height="50" relative="1" as="geometry">
            <mxPoint x="812.5" y="408" as="sourcePoint" />
            <mxPoint x="862.5" y="358" as="targetPoint" />
          </mxGeometry>
        </mxCell>
        <mxCell id="Qtx_ZqEV-sZvL8ISs7kM-42" value="SC Database" style="rounded=0;whiteSpace=wrap;html=1;" parent="1" vertex="1">
          <mxGeometry x="795" y="123" width="150" height="60" as="geometry" />
        </mxCell>
        <mxCell id="Qtx_ZqEV-sZvL8ISs7kM-43" value="" style="endArrow=classic;startArrow=classic;html=1;rounded=0;entryX=0.5;entryY=1;entryDx=0;entryDy=0;exitX=0.5;exitY=0;exitDx=0;exitDy=0;" parent="1" source="Qtx_ZqEV-sZvL8ISs7kM-36" target="Qtx_ZqEV-sZvL8ISs7kM-42" edge="1">
          <mxGeometry width="50" height="50" relative="1" as="geometry">
            <mxPoint x="820" y="233" as="sourcePoint" />
            <mxPoint x="870" y="183" as="targetPoint" />
          </mxGeometry>
        </mxCell>
        <mxCell id="Qtx_ZqEV-sZvL8ISs7kM-48" value="&lt;div&gt;archival,&lt;/div&gt;&lt;div&gt;retrieval&lt;/div&gt;" style="text;html=1;align=center;verticalAlign=middle;resizable=0;points=[];autosize=1;strokeColor=none;fillColor=none;" parent="1" vertex="1">
          <mxGeometry x="420" y="394" width="70" height="40" as="geometry" />
        </mxCell>
        <mxCell id="Qtx_ZqEV-sZvL8ISs7kM-50" value="&lt;div&gt;dataset&lt;/div&gt;&lt;div&gt;transfer&lt;br&gt;&lt;/div&gt;" style="text;html=1;align=center;verticalAlign=middle;resizable=0;points=[];autosize=1;strokeColor=none;fillColor=none;" parent="1" vertex="1">
          <mxGeometry x="562.5" y="336" width="60" height="40" as="geometry" />
        </mxCell>
        <mxCell id="Qtx_ZqEV-sZvL8ISs7kM-51" value="&lt;div&gt;manage&lt;br&gt;&lt;/div&gt;&lt;div&gt;dataset&lt;/div&gt;&lt;div&gt;entries&lt;br&gt;&lt;/div&gt;" style="text;html=1;align=center;verticalAlign=middle;resizable=0;points=[];autosize=1;strokeColor=none;fillColor=none;" parent="1" vertex="1">
          <mxGeometry x="672.5" y="230" width="70" height="60" as="geometry" />
        </mxCell>
        <mxCell id="Qtx_ZqEV-sZvL8ISs7kM-52" value="&lt;div&gt;update dataset&lt;/div&gt;&lt;div&gt;statuses&lt;/div&gt;" style="text;html=1;align=center;verticalAlign=middle;resizable=0;points=[];autosize=1;strokeColor=none;fillColor=none;" parent="1" vertex="1">
          <mxGeometry x="720" y="394" width="100" height="40" as="geometry" />
        </mxCell>
        <mxCell id="Qtx_ZqEV-sZvL8ISs7kM-54" value="&lt;div&gt;access/write&lt;/div&gt;&lt;div&gt;data&lt;br&gt;&lt;/div&gt;" style="text;html=1;align=center;verticalAlign=middle;resizable=0;points=[];autosize=1;strokeColor=none;fillColor=none;" parent="1" vertex="1">
          <mxGeometry x="562.5" y="203" width="90" height="40" as="geometry" />
        </mxCell>
        <mxCell id="Qtx_ZqEV-sZvL8ISs7kM-55" value="" style="endArrow=classic;html=1;rounded=0;entryX=0.5;entryY=1;entryDx=0;entryDy=0;exitX=0.5;exitY=0;exitDx=0;exitDy=0;" parent="1" source="Qtx_ZqEV-sZvL8ISs7kM-16" target="Qtx_ZqEV-sZvL8ISs7kM-9" edge="1">
          <mxGeometry width="50" height="50" relative="1" as="geometry">
            <mxPoint x="682.5" y="308" as="sourcePoint" />
            <mxPoint x="732.5" y="258" as="targetPoint" />
          </mxGeometry>
        </mxCell>
        <mxCell id="Qtx_ZqEV-sZvL8ISs7kM-56" value="&lt;div&gt;&lt;font style=&quot;font-size: 32px;&quot;&gt;On-Site Cache (Var. 2)&lt;/font&gt;&lt;/div&gt;" style="text;html=1;align=center;verticalAlign=middle;resizable=0;points=[];autosize=1;strokeColor=none;fillColor=none;" parent="1" vertex="1">
          <mxGeometry x="60" width="340" height="50" as="geometry" />
        </mxCell>
        <mxCell id="uyNXj7Ct0i2HBZx-eQtK-10" value="" style="endArrow=classic;html=1;rounded=0;entryX=0.5;entryY=1;entryDx=0;entryDy=0;exitX=1;exitY=0.5;exitDx=0;exitDy=0;" parent="1" source="Qtx_ZqEV-sZvL8ISs7kM-31" target="Qtx_ZqEV-sZvL8ISs7kM-36" edge="1">
          <mxGeometry width="50" height="50" relative="1" as="geometry">
            <mxPoint x="820" y="440" as="sourcePoint" />
            <mxPoint x="630" y="300" as="targetPoint" />
            <Array as="points">
              <mxPoint x="870" y="434" />
            </Array>
          </mxGeometry>
        </mxCell>
        <mxCell id="lnGGJ_NUt87TY9Sfnj02-1" value="" style="rounded=0;whiteSpace=wrap;html=1;fillColor=none;dashed=1;" vertex="1" parent="1">
          <mxGeometry x="60" y="90" width="590" height="140" as="geometry" />
        </mxCell>
        <mxCell id="lnGGJ_NUt87TY9Sfnj02-2" value="optional connection to these components" style="text;html=1;align=center;verticalAlign=middle;resizable=0;points=[];autosize=1;strokeColor=none;fillColor=none;" vertex="1" parent="1">
          <mxGeometry x="50" y="208" width="240" height="30" as="geometry" />
        </mxCell>
        <mxCell id="lnGGJ_NUt87TY9Sfnj02-3" value="" style="endArrow=classic;html=1;rounded=0;entryX=0.25;entryY=0;entryDx=0;entryDy=0;exitX=0.5;exitY=1;exitDx=0;exitDy=0;startArrow=classic;startFill=1;" edge="1" parent="1" source="Qtx_ZqEV-sZvL8ISs7kM-29" target="Qtx_ZqEV-sZvL8ISs7kM-31">
          <mxGeometry width="50" height="50" relative="1" as="geometry">
            <mxPoint x="670" y="350" as="sourcePoint" />
            <mxPoint x="720" y="300" as="targetPoint" />
            <Array as="points">
              <mxPoint x="350" y="350" />
              <mxPoint x="528" y="350" />
            </Array>
          </mxGeometry>
        </mxCell>
        <mxCell id="lnGGJ_NUt87TY9Sfnj02-4" value="&lt;div&gt;up-/download&lt;/div&gt;&lt;div&gt;datasets&lt;br&gt;&lt;/div&gt;" style="text;html=1;align=center;verticalAlign=middle;resizable=0;points=[];autosize=1;strokeColor=none;fillColor=none;" vertex="1" parent="1">
          <mxGeometry x="390" y="310" width="100" height="40" as="geometry" />
        </mxCell>
      </root>
    </mxGraphModel>
  </diagram>
</mxfile>
